<svg width="71" height="71" viewBox="0 0 71 71" fill="none" xmlns="http://www.w3.org/2000/svg">
<path d="M35.3009 32.8016C34.8494 32.8016 34.4494 32.5113 34.3108 32.0824L27.4607 11.0065C26.498 8.04261 27.2672 4.83205 29.4715 2.62932C31.0292 1.07161 33.0981 0.215332 35.3009 0.215332C37.5036 0.215332 39.5725 1.07322 41.1302 2.62932C43.3345 4.83366 44.1037 8.04261 43.141 11.0065L36.291 32.0824C36.1507 32.5113 35.7524 32.8016 35.3009 32.8016ZM35.3009 2.29713C33.6545 2.29713 32.108 2.93732 30.9438 4.10157C29.2974 5.74798 28.7201 8.14743 29.4409 10.3631L35.3009 28.3929L41.1608 10.3631C41.88 8.14743 41.3044 5.74798 39.658 4.10157C38.4937 2.93893 36.9473 2.29713 35.3009 2.29713Z" fill="#85979B"/>
<path d="M32.8804 33.8739C32.7191 33.8739 32.5579 33.8368 32.4079 33.761L12.6624 23.702C9.88556 22.2878 8.16016 19.4723 8.16016 16.3569C8.16016 11.8111 11.8577 8.11353 16.4035 8.11353C19.5205 8.11353 22.3344 9.83895 23.7486 12.6157L33.8076 32.3613C34.0124 32.7629 33.935 33.2515 33.6157 33.5707C33.4174 33.7691 33.1513 33.8739 32.8804 33.8739ZM16.4051 10.1937C13.0075 10.1937 10.2435 12.9576 10.2435 16.3552C10.2435 18.6854 11.5336 20.7881 13.6089 21.8459L30.5019 30.4505L21.8974 13.5575C20.8379 11.4821 18.7336 10.1937 16.4051 10.1937Z" fill="#85979B"/>
<path d="M8.60964 43.5491C6.46174 43.5491 4.37189 42.7057 2.79483 41.1303C1.23711 39.5726 0.380859 37.5037 0.380859 35.301C0.380859 33.0982 1.23873 31.0293 2.79483 29.4716C4.99917 27.2673 8.20973 26.4965 11.172 27.4608L32.2479 34.3109C32.6768 34.4495 32.9671 34.8494 32.9671 35.301C32.9671 35.7525 32.6768 36.1524 32.2479 36.2911L11.172 43.1411C10.3302 43.4153 9.4659 43.5491 8.60964 43.5491ZM8.61448 29.1346C7.01001 29.1346 5.44746 29.7651 4.26869 30.9423C3.10444 32.1065 2.46425 33.6529 2.46425 35.2993C2.46425 36.9457 3.10444 38.4922 4.26869 39.6564C5.9151 41.3028 8.31455 41.8785 10.5302 41.1593L28.56 35.2993L10.5302 29.4394C9.89968 29.2346 9.25305 29.1346 8.61448 29.1346Z" fill="#85979B"/>
<path d="M16.5226 62.4401C11.9769 62.4401 8.2793 58.7426 8.2793 54.1968C8.2793 51.0798 10.0047 48.2659 12.7815 46.8517L32.5271 36.7927C32.9286 36.5879 33.4172 36.6653 33.7365 36.9846C34.0558 37.3038 34.1332 37.7908 33.9284 38.194L23.8693 57.9395C22.4535 60.7147 19.638 62.4401 16.5226 62.4401ZM13.7249 48.7061C11.6495 49.764 10.3595 51.8667 10.3595 54.1968C10.3595 57.5944 13.1234 60.3584 16.521 60.3584C18.8511 60.3584 20.9539 59.0683 22.0117 56.993L30.6162 40.1L13.7249 48.7061Z" fill="#85979B"/>
<path d="M35.4669 70.2189C33.2641 70.2189 31.1953 69.3611 29.6375 67.805C27.4332 65.6006 26.664 62.3917 27.6267 59.4278L34.4768 38.3519C34.6155 37.9229 35.0154 37.6327 35.4669 37.6327C35.9184 37.6327 36.3183 37.9229 36.457 38.3519L43.3071 59.4278C44.2697 62.3917 43.5006 65.6022 41.2962 67.805C39.7401 69.3611 37.6696 70.2189 35.4669 70.2189ZM29.6069 60.0696C28.8877 62.2852 29.4634 64.6847 31.1098 66.3311C32.274 67.4953 33.8205 68.1355 35.4669 68.1355C37.1133 68.1355 38.6597 67.4953 39.824 66.3311C41.472 64.6847 42.0477 62.2852 41.3268 60.0696L35.4669 42.0398L29.6069 60.0696Z" fill="#85979B"/>
<path d="M54.3633 62.3224C51.2463 62.3224 48.4324 60.5969 47.0182 57.8201L36.9592 38.0746C36.7544 37.6731 36.8318 37.1845 37.1511 36.8652C37.4703 36.5459 37.9573 36.4685 38.3605 36.6733L58.106 46.7323C60.8828 48.1465 62.6082 50.962 62.6082 54.0774C62.6066 58.6248 58.9075 62.3224 54.3633 62.3224ZM48.8726 56.8752C49.9305 58.9505 52.0332 60.2406 54.3633 60.2406C57.761 60.2406 60.5249 57.4767 60.5249 54.0791C60.5249 51.7489 59.2348 49.6462 57.1595 48.5883L40.2681 39.9838L48.8726 56.8752Z" fill="#85979B"/>
<path d="M62.1579 43.3815C61.3032 43.3815 60.4389 43.2477 59.5939 42.9735L38.518 36.1235C38.0891 35.9848 37.7988 35.5849 37.7988 35.1334C37.7988 34.6818 38.0891 34.2819 38.518 34.1433L59.5939 27.2932C62.5578 26.3289 65.7684 27.0997 67.9711 29.304C71.1849 32.5178 71.1849 37.7489 67.9711 40.9627C66.3956 42.5398 64.3042 43.3815 62.1579 43.3815ZM42.2075 35.1334L60.2373 40.9933C62.4514 41.7125 64.8524 41.1368 66.4988 39.4904C68.9015 37.0878 68.9015 33.179 66.4988 30.7763C64.8524 29.1299 62.453 28.5526 60.2373 29.2734L42.2075 35.1334Z" fill="#85979B"/>
<path d="M37.7689 33.7562C37.4996 33.7562 37.2319 33.6514 37.0319 33.4515C36.7126 33.1322 36.6352 32.6452 36.84 32.242L46.8991 12.4965C48.3133 9.71969 51.1288 7.99426 54.2442 7.99426C58.7899 7.99426 62.4875 11.6918 62.4875 16.2376C62.4875 19.3546 60.7621 22.1685 57.9853 23.5827L38.2397 33.6417C38.0914 33.7191 37.9285 33.7562 37.7689 33.7562ZM54.2442 10.0761C51.9141 10.0761 49.8113 11.3661 48.7535 13.4414L40.149 30.3344L57.0403 21.7299C59.1157 20.6721 60.4057 18.5693 60.4057 16.2392C60.4073 12.84 57.6434 10.0761 54.2442 10.0761Z" fill="#85979B"/>
</svg>
